<!-- Mobile version - Single column -->
<svg viewBox="0 0 620 592" width="100%" height="592" xmlns="http://www.w3.org/2000/svg">
    <style>
        text { font-family: -apple-system, BlinkMacSystemFont, "Segoe UI", Roboto, Helvetica, Arial, sans-serif; }
        .box-bg { fill: #e6f4ea; stroke: #a7cdb3; stroke-width: 1; }
        .title { font-weight: 700; font-size: 14px; fill: #1a202c; }
        .content { font-size: 11px; fill: #4a5568; }
    </style>

    <g>
        <rect class="box-bg" x="16" y="16" width="588" height="80" rx="6"/>
        <rect x="16" y="16" width="4" height="80" fill="#1f883d"/>
        <text class="title" x="32" y="46">Advanced Error Handling</text>
        <text class="content" x="32" y="72">Custom views &#8226; Debug mode &#8226; PSR-7 compatible responses</text>
    </g>
    <g>
        <rect class="box-bg" x="16" y="112" width="588" height="80" rx="6"/>
        <rect x="16" y="112" width="4" height="80" fill="#1f883d"/>
        <text class="title" x="32" y="142">Cookie &amp; Session Management</text>
        <text class="content" x="32" y="168">Encrypted cookies &#8226; SameSite support &#8226; Session isolation</text>
    </g>
    <g>
        <rect class="box-bg" x="16" y="208" width="588" height="80" rx="6"/>
        <rect x="16" y="208" width="4" height="80" fill="#1f883d"/>
        <text class="title" x="32" y="238">PSR-7 Request/Response Bridge</text>
        <text class="content" x="32" y="264">Auto-conversion &#8226; Content-Range &#8226; Type safe responses</text>
    </g>
    <g>
        <rect class="box-bg" x="16" y="304" width="588" height="80" rx="6"/>
        <rect x="16" y="304" width="4" height="80" fill="#1f883d"/>
        <text class="title" x="32" y="334">Smart File Upload Processing</text>
        <text class="content" x="32" y="360">Memory efficient &#8226; Multiple files &#8226; PSR-7 UploadedFileInterface</text>
    </g>
    <g>
        <rect class="box-bg" x="16" y="400" width="588" height="80" rx="6"/>
        <rect x="16" y="400" width="4" height="80" fill="#1f883d"/>
        <text class="title" x="32" y="430">Stateless Application Support</text>
        <text class="content" x="32" y="456">Memory cleanup &#8226; Event tracking &#8226; Request-scoped lifecycle</text>
    </g>
    <g>
        <rect class="box-bg" x="16" y="496" width="588" height="80" rx="6"/>
        <rect x="16" y="496" width="4" height="80" fill="#1f883d"/>
        <text class="title" x="32" y="526">Worker Mode Compatibility</text>
        <text class="content" x="32" y="552">RoadRunner &#8226; FrankenPHP &#8226; Zero state contamination</text>
    </g>
</svg>
